mtllib Gordo.mtl
v 0.25 0.3535156 -0.25
vt -0.1417339 0.9031615
vn 0.4525729 0.7490861 -0.4837848
v 0.1914063 0.4609375 0
vt 0.08567291 0.9528904
vn 0.3763809 0.9252697 0.04704761
v 0 0.4980469 0
vt -0.2291981 0.9528904
vn 0 0.9823385 -0.1871121
v 0.3535156 0.3535156 0
vt -0.01053767 0.8932158
vn 0.7063224 0.7063224 -0.04708816
v 0.4609375 0.1914063 0
vt -0.05426975 0.6943002
vn 0.9234545 0.3756425 -0.07825886
v 0.25 0.3535156 0.2382813
vt 0.1643907 0.8932158
vn 0.4682929 0.7492687 0.4682929
v 0 0.4609375 0.1816406
vt 0.3305726 0.9528904
vn 0 0.9337462 0.357936
vt 0.3305726 0.9827278
v -0.1914063 0.4609375 0
vn -0.3763809 0.9252697 0.04704761
v -0.25 0.3535156 0.2382813
vn -0.4682929 0.7492687 0.4682929
v 0 0.3535156 0.3515625
vt 0.3305726 0.8434868
vn 0 0.7071068 0.7071068
v 0.1914063 0.1914063 0.4199219
vt 0.1906299 0.6943002
vn 0.4209511 0.3741787 0.8263113
v 0.4003906 0.1914063 0.2382813
vt 0.05068725 0.6943002
vn 0.7699607 0.3928371 0.5028315
v 0.4980469 0 0
vt -0.05426975 0.4953846
vn 0.9980526 0 -0.06237829
v 0.3535156 0 -0.3535156
vt -0.1417339 0.4953846
vn 0.7808688 0 -0.6246951
v 0 0.3535156 -0.3535156
vt -0.2291981 0.9031615
vn 0 0.714834 -0.6992941
v -0.25 0.3535156 -0.25
vn -0.4525729 0.7490861 -0.4837848
v -0.3535156 0.3535156 0
vn -0.7063224 0.7063224 -0.04708816
v -0.4003906 0.1914063 0.2382813
vn -0.7699607 0.3928371 0.5028315
v -0.1914063 0.1914063 0.4199219
vn -0.4209511 0.3741787 0.8263113
v 0 0.1914063 0.4609375
vt 0.3305726 0.6943002
vn 0 0.390149 0.9207517
v 0 0 0.5
vt 0.3305726 0.4953846
vn 0 0.07788767 0.9969621
v -0.2226563 0 0.4511719
vt 0.1818835 0.4953846
vn -0.4652421 -0.04652421 0.8839599
v -0.4335938 0 0.25
vt 0.01570158 0.4953846
vn -0.8263113 0.04677234 0.5612681
v -0.4609375 0.1914063 0
vn -0.9234545 0.3756425 -0.07825886
v -0.3535156 0 -0.3535156
vn -0.7808688 0 -0.6246951
v 0 0 -0.4980469
vt -0.2291981 0.4953846
vn 0 0 -1
v 0.25 -0.3535156 -0.25
vt -0.1417339 0.09755337
vn 0.4525729 -0.7490861 -0.4837848
v 0 -0.3535156 -0.3535156
vt -0.2291981 0.09755337
vn 0 -0.714834 -0.6992941
v -0.25 -0.3535156 -0.25
vn -0.4525729 -0.7490861 -0.4837848
v 0 -0.4980469 0
vt -0.2291981 -0.1013622
vn 0 -0.9823385 -0.1871121
v 0.1914063 -0.4609375 0
vt 0.05068725 -0.1013622
vn 0.3767517 -0.9261813 0.01569799
v 0.3535156 -0.3535156 0
vt -0.01053767 0.1074991
vn 0.7212193 -0.689862 -0.06271473
v 0.4609375 -0.1914063 0
vt -0.05426975 0.296469
vn 0.9275537 -0.3615887 -0.09432749
v 0.4335938 0 0.25
vn 0.8263113 0.04677234 0.5612681
v 0.2226563 0 0.4511719
vn 0.4652421 -0.04652421 0.8839599
v 0 -0.1914063 0.4648438
vt 0.3305726 0.2865232
vn 0 -0.2973837 0.9547581
v -0.1914063 -0.1914063 0.4238281
vt 0.1906299 0.2865232
vn -0.4056069 -0.4212071 0.8112137
v -0.4003906 -0.1914063 0.2421875
vt 0.04194083 0.296469
vn -0.7643199 -0.343164 0.5459428
v -0.4980469 0 0
vn -0.9980526 0 -0.06237829
v -0.4609375 -0.1914063 0
vn -0.9275537 -0.3615887 -0.09432749
v -0.3535156 -0.3535156 0
vn -0.7212193 -0.689862 -0.06271473
v -0.1914063 -0.4609375 0
vn -0.3767517 -0.9261813 0.01569799
v -0.2851563 -0.3535156 0.21875
vt 0.1206586 0.1074991
vn -0.4990263 -0.7485394 0.436648
v 0 -0.4609375 0.1914063
vt 0.3305726 -0.1013622
vn 0 -0.9337462 0.357936
vt 0.3305726 -0.3002778
v 0.2851563 -0.3535156 0.21875
vn 0.4990263 -0.7485394 0.436648
v 0.4003906 -0.1914063 0.2421875
vn 0.7643199 -0.343164 0.5459428
v 0.1914063 -0.1914063 0.4238281
vn 0.4056069 -0.4212071 0.8112137
v 0 -0.3535156 0.3652344
vt 0.3305726 0.1074991
vn 0 -0.6992941 0.714834
v 0.2988281 -0.2929688 0.08789063
vt 0.4967545 0.08760756
vn 0.1244392 -0.155549 0.9799588
v 0.7236794 -0.7236794 -0.02929688
vt 0.5055009 0.9926735
vn 0.6392568 -0.72743 0.249392
v 0.2382813 -0.3730469 -0.07617188
vt 0.6454436 0.08760756
vn -0.4823187 -0.7312574 -0.4823187
v 0.3730469 -0.2109375 -0.07617188
vt 0.3568118 0.08760756
vn 0.7547132 0.4716958 -0.4559726
v -0.3613281 -0.2207031 -0.07617188
vn -0.7257443 0.4786824 -0.4941238
v -0.7236794 -0.7236794 -0.02929688
vn -0.7180677 -0.6959733 0
v -0.234375 -0.3632813 -0.07617188
vn 0.4840797 -0.7183117 -0.4996951
v -0.2988281 -0.2929688 0.08789063
vn -0.140028 -0.140028 0.9801961
v 0.4394531 0 0.0859375
vt 0.7678934 0.008041322
vn 0.5028936 0 0.8643484
v 0.6582031 0 -0.04296875
vt 0.7766398 0.7937579
vn 0.9603462 0 0.2788102
v 0.4394531 -0.1445313 -0.07617188
vt 0.6541899 0.008041322
vn 0.5493619 -0.7377145 -0.3924013
v 0.4394531 0.1445313 -0.07617188
vt 0.8990896 0.008041322
vn 0.5493619 0.7377145 -0.3924013
v 0 -0.4433594 0.0859375
vt 0.5055009 0.01798713
vn 0 -0.4722214 0.88148
v 0 -0.6582031 -0.02929688
vn 0 -0.9793667 0.2020915
v -0.1230469 -0.4433594 -0.07617188
vt 0.6629364 0.01798713
vn -0.7524842 -0.5173329 -0.4075956
v 0.1230469 -0.4433594 -0.07617188
vt 0.339319 0.01798713
vn 0.7524842 -0.5173329 -0.4075956
v 0.1230469 0.4433594 -0.07617188
vt 0.8728504 0.08760756
vn 0.7524842 0.5173329 -0.4075956
v 0 0.6582031 -0.02929688
vt 0.802879 0.9926735
vn 0 0.9793667 0.2020915
v -0.1230469 0.4433594 -0.07617188
vt 0.7154149 0.08760756
vn -0.7524842 0.5173329 -0.4075956
v 0 0.4433594 0.0859375
vt 0.7941326 0.08760756
vn 0 0.4722214 0.88148
v -0.4394531 0.1445313 -0.07617188
vn -0.5493619 0.7377145 -0.3924013
v -0.6582031 0 -0.04296875
vn -0.9603462 0 0.2788102
v -0.4394531 -0.1445313 -0.07617188
vn -0.5493619 -0.7377145 -0.3924013
v -0.4394531 0 0.0859375
vn -0.5028936 0 0.8643484
v 0.2988281 0.2929688 0.08789063
vt 0.8378647 0.01798713
vn 0.140028 0.140028 0.9801961
v 0.7236794 0.7236794 -0.02929688
vt 0.8116255 0.972782
vn 0.6674086 0.6674086 0.3303505
v 0.375 0.2148438 -0.07617188
vn 0.7492687 -0.4682929 -0.4682929
v 0.2265625 0.375 -0.07617188
vt 0.9953002 0.008041322
vn -0.480346 0.7437615 -0.464851
v -0.2324219 0.3691406 -0.07617188
vn 0.4823187 0.7312574 -0.4823187
v -0.7236794 0.7236794 -0.02929688
vn -0.7896692 0.6117156 -0.0471871
v -0.359375 0.2324219 -0.07617188
vn -0.712686 -0.4802884 -0.5112748
v -0.2988281 0.2929688 0.08789063
vn -0.1558321 0.1090824 0.981742
o Joint_2_Object_0_SINGLE
g polygon_0
usemtl Joint_2_Object_0_Material_0
f 1/1/1 3/3/3 2/2/2
f 1/1/1 2/2/2 4/4/4
f 5/5/5 1/1/1 4/4/4
f 6/6/6 5/5/5 4/4/4
f 6/6/6 4/4/4 2/2/2
f 7/7/7 6/6/6 2/2/2
f 7/7/7 2/2/2 3/8/3
f 7/7/7 3/8/3 8/2/8
f 7/7/7 8/2/8 9/6/9
f 7/7/7 9/6/9 10/9/10
f 6/6/6 7/7/7 10/9/10
f 6/6/6 10/9/10 11/10/11
f 6/6/6 11/10/11 12/11/12
f 5/5/5 6/6/6 12/11/12
f 5/5/5 12/11/12 13/12/13
f 5/5/5 13/12/13 14/13/14
f 1/1/1 5/5/5 14/13/14
f 1/1/1 14/13/14 15/14/15
f 3/3/3 1/1/1 15/14/15
f 3/3/3 15/14/15 16/1/16
f 8/2/8 3/3/3 16/1/16
f 8/2/8 16/1/16 17/4/17
f 9/6/9 8/2/8 17/4/17
f 9/6/9 17/4/17 18/11/18
f 9/6/9 18/11/18 19/10/19
f 10/9/10 9/6/9 19/10/19
f 10/9/10 19/10/19 20/15/20
f 11/10/11 10/9/10 20/15/20
f 21/16/21 11/10/11 20/15/20
f 21/16/21 20/15/20 19/10/19
f 22/17/22 21/16/21 19/10/19
f 23/18/23 22/17/22 19/10/19
f 23/18/23 19/10/19 18/11/18
f 24/5/24 23/18/23 18/11/18
f 24/5/24 18/11/18 17/4/17
f 25/13/25 24/5/24 17/4/17
f 25/13/25 17/4/17 16/1/16
f 26/19/26 25/13/25 16/1/16
f 26/19/26 16/1/16 15/14/15
f 26/19/26 15/14/15 14/13/14
f 26/19/26 14/13/14 27/20/27
f 26/19/26 27/20/27 28/21/28
f 25/13/25 26/19/26 28/21/28
f 29/20/29 25/13/25 28/21/28
f 30/22/30 29/20/29 28/21/28
f 30/22/30 28/21/28 27/20/27
f 31/23/31 30/22/30 27/20/27
f 32/24/32 31/23/31 27/20/27
f 32/24/32 27/20/27 14/13/14
f 33/25/33 32/24/32 14/13/14
f 33/25/33 14/13/14 13/12/13
f 34/18/34 33/25/33 13/12/13
f 34/18/34 13/12/13 12/11/12
f 34/18/34 12/11/12 11/10/11
f 35/17/35 34/18/34 11/10/11
f 35/17/35 11/10/11 21/16/21
f 36/26/36 35/17/35 21/16/21
f 36/26/36 21/16/21 22/17/22
f 37/27/37 36/26/36 22/17/22
f 38/28/38 37/27/37 22/17/22
f 38/28/38 22/17/22 23/18/23
f 39/12/39 38/28/38 23/18/23
f 39/12/39 23/18/23 24/5/24
f 39/12/39 24/5/24 25/13/25
f 40/25/40 39/12/39 25/13/25
f 40/25/40 25/13/25 29/20/29
f 41/24/41 40/25/40 29/20/29
f 42/23/42 41/24/41 29/20/29
f 42/23/42 29/20/29 30/22/30
f 38/28/38 39/12/39 40/25/40
f 43/29/43 38/28/38 40/25/40
f 43/29/43 40/25/40 41/24/41
f 43/29/43 41/24/41 42/23/42
f 44/30/44 43/29/43 42/23/42
f 44/30/44 42/23/42 30/31/30
f 44/30/44 30/31/30 31/23/31
f 45/29/45 44/30/44 31/23/31
f 45/29/45 31/23/31 32/24/32
f 46/28/46 45/29/45 32/24/32
f 46/28/46 32/24/32 33/25/33
f 46/28/46 33/25/33 34/18/34
f 46/28/46 34/18/34 35/17/35
f 47/27/47 46/28/46 35/17/35
f 47/27/47 35/17/35 36/26/36
f 48/32/48 47/27/47 36/26/36
f 48/32/48 36/26/36 37/27/37
f 43/29/43 48/32/48 37/27/37
f 43/29/43 37/27/37 38/28/38
f 45/29/45 46/28/46 47/27/47
f 45/29/45 47/27/47 48/32/48
f 44/30/44 45/29/45 48/32/48
f 44/30/44 48/32/48 43/29/43
f 49/33/49 51/35/51 50/34/50
f 52/36/52 49/33/49 50/34/50
f 52/36/52 50/34/50 51/35/51
f 53/36/53 55/35/55 54/34/54
f 56/33/56 53/36/53 54/34/54
f 56/33/56 54/34/54 55/35/55
f 57/37/57 59/39/59 58/38/58
f 60/40/60 57/37/57 58/38/58
f 60/40/60 58/38/58 59/39/59
f 61/41/61 63/42/63 62/34/62
f 64/43/64 61/41/61 62/34/62
f 64/43/64 62/34/62 63/42/63
f 65/44/65 67/46/67 66/45/66
f 68/47/68 65/44/65 66/45/66
f 68/47/68 66/45/66 67/46/67
f 69/40/69 71/39/71 70/38/70
f 72/37/72 69/40/69 70/38/70
f 72/37/72 70/38/70 71/39/71
f 73/48/73 75/39/75 74/49/74
f 76/50/76 73/48/73 74/49/74
f 76/50/76 74/49/74 75/39/75
f 77/50/77 79/39/79 78/49/78
f 80/48/80 77/50/77 78/49/78
f 80/48/80 78/49/78 79/39/79
v -0.4375 0.1386719 0.001953125
vt 0.6796875 0.0546875
vn 0.172001 0 -0.9850968
v -0.6621094 0 -0.08789063
vt 0.6015625 0.9765625
vn 0.172001 0 0.9850968
v -0.4375 -0.1386719 0.001953125
vt 0.5 0.046875
v -0.1191406 -0.4394531 0.001953125
vt 0.703125 0.1171875
vn 0 0.172001 -0.9850968
v 0 -0.6621094 -0.08789063
vt 0.7734375 0.546875
vn 0 -0.172001 0.9850968
v 0.1191406 -0.4394531 0.001953125
vt 0.8203125 0.1171875
v 0.1191406 0.4394531 0.001953125
vt 0.71875 0.0703125
vn 0 -0.172001 -0.9850968
v 0 0.6621094 -0.08789063
vt 0.8046875 0.9453125
vn 0 0.1567675 0.9876355
v -0.1191406 0.4394531 0.001953125
vt 0.84375 0.0703125
v 0.4375 -0.1386719 0.001953125
vt 0.6796875 0.078125
vn -0.172001 0 -0.9850968
v 0.6621094 0 -0.08789063
vt 0.8125 0.9140625
vn -0.172001 0 0.9850968
v 0.4375 0.1386719 0.001953125
vt 0.8828125 0.0703125
v -0.234375 -0.3769531 -0.078125
vt 0.7265625 0.015625
v -0.3652344 -0.2226563 -0.078125
vt 0.921875 0.015625
v -0.7236794 -0.7236794 -0.03125
vt 0.828125 0.9765625
vn -0.6542564 0.4050159 0.6386788
v -0.2910156 -0.2988281 0.06054688
vn -0.6510697 0.4082979 0.6398445
vn 0.4050159 -0.6542564 0.6386788
vn 0.4082979 -0.6510697 0.6398445
v 0.234375 -0.3867188 -0.078125
vt 0.46875 0.03125
v 0.7236794 -0.7236794 -0.03125
vt 0.578125 0.9921875
v 0.3769531 -0.2148438 -0.078125
vt 0.6484375 0.0234375
vn 0.6542564 0.4050159 0.6386788
vn 0.6510697 0.4082979 0.6398445
v 0.3046875 -0.2910156 0.06054688
vt 0.890625 0.9765625
vn -0.4082979 -0.6510697 0.6398445
vt 0.7890625 0.0234375
vn -0.4050159 -0.6542564 0.6386788
vt 0.984375 0.03125
v 0.3847656 0.2207031 -0.078125
vt 0.609375 0.015625
vn 0.6542564 -0.4050159 0.6386788
v 0.3007813 0.3007813 0.06054688
vt 0.375 0.0234375
v 0.7236794 0.7236794 -0.03125
vt 0.46875 0.984375
vn 0.6510697 -0.4082979 0.6398445
v 0.2226563 0.3769531 -0.078125
vn -0.4050159 0.6542564 0.6386788
vn -0.4082979 0.6510697 0.6398445
v -0.7236794 0.7236794 -0.03125
vt 0.53125 0.984375
vn -0.6510697 -0.4082979 0.6398445
v -0.3027344 0.2988281 0.06054688
vt 0.34375 0.03125
vn -0.6542564 -0.4050159 0.6386788
v -0.3671875 0.2324219 -0.078125
vt 0.5859375 0.0390625
v -0.2382813 0.3671875 -0.078125
vn 0.4082979 0.6510697 0.6398445
vn 0.4050159 0.6542564 0.6386788
v 0 -0.4179688 0.3652344
vt 0.328125 0.0546875
vn 0 -0.714834 0.6992941
v 0 0 0.5214844
vt 0.328125 0.4921875
vn 0 0 1
v 0.3730469 0 0.3769531
vt 0.0703125 0.4921875
vn 0.6992941 0 0.714834
v -0.3730469 0 0.3769531
vn -0.6992941 0 0.714834
v 0 0.3847656 0.3710938
vt 0.328125 0.90625
vn 0 0.714834 0.6992941
v 0.375 0.3847656 -0.005859375
vt 0.046875 0.8984375
vn 0.6911374 0.7225527 -0.01570767
v 0.5332031 0 0
vt -0.109375 0.4921875
vn 0.9997559 -0.01562119 -0.01562119
v 0.3496094 -0.4140625 0
vt 0.046875 0.0546875
vn 0.6911374 -0.7225527 -0.01570767
v 0 -0.5332031 0
vt 0.328125 0.0078125
vn 0 -0.9998779 -0.01562309
v -0.3496094 -0.4140625 0
vn -0.6911374 -0.7225527 -0.01570767
v -0.5332031 0 0
vn -0.9993902 -0.03123095 -0.01561547
v -0.3867188 0.3886719 0
vn -0.6911374 0.7225527 -0.01570767
v 0 0.515625 0
vt 0.328125 1
vn 0.01562119 0.9997559 -0.01562119
vt 0.015625 0.984375
v 0 0.3847656 -0.3496094
vt 0.015625 0.8984375
vn 0 0.6992941 -0.714834
vt 0.0078125 0.8984375
v -0.3769531 0 -0.3496094
vt 0.0078125 0.4921875
vn -0.6911374 -0.01570767 -0.7225527
vt 0.0078125 0.5
vt 0.0078125 0.0546875
v 0 -0.4121094 -0.34375
vt 0.015625 0.0546875
vn 0 -0.6992941 -0.714834
vt 0.0078125 0.0078125
v 0.3769531 0 -0.3496094
vn 0.6912226 0 -0.7226418
vt 0.015625 0.4921875
o Joint_2_Object_1_SINGLE
g polygon_0
usemtl Joint_2_Object_1_Material_1
f 81/51/81 83/53/81 82/52/82
f 84/54/83 86/56/83 85/55/84
f 87/57/85 89/59/85 88/58/86
f 90/60/87 92/62/87 91/61/88
f 93/63/26 95/65/26 94/64/26
f 94/63/89 95/65/90 96/64/89
f 96/63/91 95/65/92 93/64/91
f 97/66/26 99/68/26 98/67/26
f 99/66/93 100/68/93 98/67/94
f 98/69/95 100/71/96 97/70/96
f 101/72/97 103/74/98 102/73/97
f 104/72/26 103/74/26 101/73/26
f 102/72/99 103/74/100 104/73/99
f 105/75/101 107/77/102 106/76/102
f 108/77/26 107/76/26 105/75/26
f 105/75/103 106/77/104 108/76/104
f 109/78/105 111/80/107 110/79/106
f 112/80/108 109/78/105 110/79/106
f 113/81/109 112/80/108 110/79/106
f 113/81/109 110/79/106 111/80/107
f 114/82/110 113/81/109 111/80/107
f 115/83/111 114/82/110 111/80/107
f 116/84/112 115/83/111 111/80/107
f 116/84/112 111/80/107 109/78/105
f 117/85/113 116/84/112 109/78/105
f 118/84/114 117/85/113 109/78/105
f 118/84/114 109/78/105 112/80/108
f 119/83/115 118/84/114 112/80/108
f 120/82/116 119/83/115 112/80/108
f 120/82/116 112/80/108 113/81/109
f 121/86/117 120/82/116 113/81/109
f 121/86/117 113/81/109 114/82/110
f 121/87/117 114/89/110 122/88/118
f 120/89/116 121/87/117 122/88/118
f 120/89/116 122/88/118 123/90/119
f 119/91/115 120/89/116 123/90/119
f 118/92/114 119/91/115 123/90/119
f 118/92/114 123/90/119 124/93/120
f 117/94/113 118/92/114 124/93/120
f 116/92/112 117/94/113 124/93/120
f 116/92/112 124/93/120 125/91/121
f 115/91/111 116/92/112 125/91/121
f 114/89/110 115/91/111 125/91/121
f 122/88/118 114/89/110 125/91/121
f 122/88/118 125/91/121 26/95/26
f 123/90/119 122/88/118 26/95/26
f 124/93/120 123/90/119 26/95/26
f 124/93/120 26/95/26 125/91/121
v -0.7181551 -0.7236794 -0.0546875
vt 0.8046875 0.9765625
vn 0.5467829 0.5467829 -0.6340798
v -0.359375 -0.2226563 0.0546875
vt 0.9375 0.0390625
vn 0.7718689 -0.4725728 0.4253155
v -0.2285156 -0.3691406 0.0546875
vt 0.6640625 0.0390625
vn -0.4725728 0.7718689 0.4253155
v -0.359375 0.2226563 0.0546875
vt 0.9765625 0.046875
vn 0.7718689 0.4725728 0.4253155
v -0.7181551 0.7236794 -0.0546875
vn 0.5467829 -0.5467829 -0.6340798
v -0.2285156 0.3691406 0.0546875
vt 0.7265625 0.046875
vn -0.4725728 -0.7718689 0.4253155
v 0.7181551 0.7236794 -0.0546875
vt 0.453125 0.9765625
vn -0.5467829 -0.5467829 -0.6340798
v 0.3847656 0.21875 0.0546875
vt 0.375 0.0546875
vn -0.7718689 0.4725728 0.4253155
v 0.2285156 0.3847656 0.0546875
vt 0.6171875 0.0546875
vn 0.4725728 -0.7718689 0.4253155
v 0.3847656 -0.21875 0.0546875
vt 0.3671875 0.03125
vn -0.7718689 -0.4725728 0.4253155
v 0.7181551 -0.7236794 -0.0546875
vt 0.4765625 0.984375
vn -0.5467829 0.5467829 -0.6340798
v 0.2285156 -0.3847656 0.0546875
vt 0.625 0.0234375
vn 0.4725728 0.7718689 0.4253155
v 0 -0.5742188 0
vn 0 -1 0
v 0 0 0.5742188
vt 0.328125 0.4453125
v 0.5742188 0 0
vt -0.109375 0.4453125
vn 1 0 0
v -0.5742188 0 0
vn -1 0 0
v 0 0.5742188 0
vt 0.328125 0.9921875
vn 0 1 0
vt 0.0078125 0.4453125
v 0 0 -0.5742188
vt 0.0078125 0.9921875
o Joint_2_Object_2_SINGLE
g polygon_0
usemtl Joint_2_Object_2_Material_2
f 126/96/122 128/98/124 127/97/123
f 129/99/125 131/100/127 130/65/126
f 132/101/128 134/103/130 133/102/129
f 135/104/131 137/106/133 136/105/132
f 138/85/134 140/108/135 139/107/106
f 141/108/136 138/85/134 139/107/106
f 142/109/137 141/108/136 139/107/106
f 142/109/137 139/107/106 140/108/135
f 141/110/136 142/111/137 143/110/26
f 138/94/134 141/110/136 143/110/26
f 140/110/135 138/94/134 143/110/26
f 140/110/135 143/110/26 142/111/137
